<?xml version="1.0" standalone="no"?>
<!DOCTYPE svg PUBLIC "-//W3C//DTD SVG 20010904//EN"
 "http://www.w3.org/TR/2001/REC-SVG-20010904/DTD/svg10.dtd">
<svg version="1.0" xmlns="http://www.w3.org/2000/svg"
 width="27.000000pt" height="32.000000pt" viewBox="0 0 27.000000 32.000000"
 preserveAspectRatio="xMidYMid meet">

<g transform="translate(0.000000,32.000000) scale(0.100000,-0.100000)"
fill="#000000" stroke="none">
<path d="M42 304 c-21 -15 -41 -118 -35 -174 7 -61 22 -81 80 -109 l50 -23 51
26 c58 29 67 42 75 106 6 50 -12 153 -30 171 -15 15 -171 18 -191 3z m53 -24
c13 -6 15 -9 5 -9 -8 0 -22 4 -30 9 -18 12 -2 12 25 0z m108 -1 c-5 -5 -25
-12 -44 -14 l-34 -3 30 13 c37 17 64 20 48 4z m-13 -34 c37 -19 38 -27 3 -23
-22 2 -29 -2 -31 -19 -4 -29 -44 -27 -53 2 -4 14 -13 19 -30 17 -39 -4 -7 20
38 28 21 4 39 8 41 9 2 0 16 -6 32 -14z m60 -37 c0 -30 -41 -98 -48 -79 -3 8
2 19 10 25 9 6 19 26 22 44 9 37 16 42 16 10z m-190 -58 c6 0 10 -4 10 -10 0
-5 -4 -10 -9 -10 -9 0 -42 62 -40 77 0 4 7 -7 15 -24 8 -18 19 -33 24 -33z
m37 27 c30 -32 31 -34 13 -50 -21 -17 -30 -13 -30 15 0 10 -7 21 -15 24 -15 6
-21 44 -7 44 4 0 22 -15 39 -33z m123 13 c0 -11 -7 -23 -15 -26 -8 -4 -15 -17
-15 -30 0 -27 -7 -29 -32 -10 -24 18 -23 23 14 57 38 34 48 36 48 9z m19 -96
c-7 -8 -31 -25 -53 -36 -36 -18 -44 -19 -76 -8 -39 14 -83 41 -77 47 2 2 25
-8 50 -22 l46 -26 44 19 c25 11 48 25 51 31 4 6 12 11 18 11 6 0 5 -6 -3 -16z"/>
</g>
</svg>
